<?xml version="1.0" encoding="utf-8"?>
<!-- Generator: Adobe Illustrator 18.1.1, SVG Export Plug-In . SVG Version: 6.00 Build 0)  -->
<!DOCTYPE svg PUBLIC "-//W3C//DTD SVG 1.1//EN" "http://www.w3.org/Graphics/SVG/1.1/DTD/svg11.dtd">
<svg version="1.1" id="Layer_1" xmlns="http://www.w3.org/2000/svg" xmlns:xlink="http://www.w3.org/1999/xlink" x="0px" y="0px"
	 viewBox="80 0 480 480" enable-background="new 80 0 480 480" xml:space="preserve">
<g>
	<rect x="170.7" y="76.5" fill="#FFFFFF" width="298.6" height="272.7"/>
	<path d="M320.4,145.2c-38.5,0-67.3,33.1-67.3,67.5c0,33.3,25.6,67.8,67.3,67.8c35.9,0,66.1-29.4,66.1-67.8
		C386.5,169.7,352.1,145.2,320.4,145.2z"/>
	<path d="M536.7,30.6L341.8,2.7c-12-1.7-31.6-1.7-43.6,0L103,30.6C91,32.3,81.1,43.7,81.1,56v256.5c0,12.3,8.5,27.4,18.8,33.9
		l202.3,127.1c10.3,6.6,27.1,6.3,37.3-0.3l200.9-128.8c10.3-6.6,18.5-21.9,18.5-33.9V56C558.7,43.7,549,32.3,536.7,30.6z
		 M435.3,320.7h-48.7v-15.6c-16.5,12.8-39.3,22.5-68.1,22.5c-69,0-114-59-114-115.1c0-73,60.4-114.3,115.4-114.3
		c55.9,0,115.4,41.9,115.4,114.6L435.3,320.7L435.3,320.7z"/>
</g>
</svg>
